<?xml version="1.0" encoding="utf-8"?>
<!-- Generator: Adobe Illustrator 25.2.3, SVG Export Plug-In . SVG Version: 6.00 Build 0)  -->
<svg version="1.1" id="圖層_1" xmlns="http://www.w3.org/2000/svg" xmlns:xlink="http://www.w3.org/1999/xlink" x="0px" y="0px"
	 viewBox="0 0 243.2 70" style="enable-background:new 0 0 243.2 70;" xml:space="preserve">
<style type="text/css">
	.st0{fill:#12F99F;}
</style>
<g>
	<path class="st0" d="M107,29.2l-9.5-1.6c-4.1-0.7-7.4-4.6-8-9.5L88.2,6.7c-0.1-0.6-0.9-0.6-0.9,0L86,18.1c-0.6,4.9-3.8,8.8-8,9.5
		l-9.5,1.6c-0.5,0.1-0.5,1,0,1.1l9.5,1.6c4.1,0.7,7.4,4.6,8,9.5l1.3,11.4c0.1,0.6,0.9,0.6,0.9,0l1.3-11.4c0.6-4.9,3.8-8.8,8-9.5
		l9.5-1.6C107.5,30.2,107.5,29.3,107,29.2L107,29.2z"/>
	<path d="M63.5,62.5c-5.8-2.4-10.7-6.7-15-13c3.6-1.7,7.2-4.1,10.7-7.1l-4.3-5.1c-1.8,3.2-4.2,6.7-7.4,10.6c-2.4-4-4.3-8.5-5.7-13.5
		h9.7v2.9h1c0.9,0,1.9-0.3,3.1-0.8s1.8-1,1.8-1.3V10.7V7.4h-6.6H36.4h-6.7v38.3l-2.8-0.4c-1.6-0.3-2.8-1.7-3.1-3.5l-0.5-4.2
		c0-0.2-0.3-0.2-0.4,0l-0.5,4.2c-0.2,1.8-1.5,3.2-3.1,3.5l-2.1,0.3V35.5h10c0.6,0,1.1-0.5,1.1-1.1s-0.5-1.1-1.1-1.1h-10V22.8h8
		c0.6,0,1.1-0.5,1.1-1.1s-0.5-1.1-1.1-1.1H6.5c4.1-4.8,7.3-9.9,9.7-15.2c2.8,3.7,4.8,7.3,5.9,10.9c0.1,0.2,0.2,0.6,0.5,1
		c1.1,1,2.6,1.1,3.9,0.2c1.3-1.1,1.7-2.5,1.1-4.5c-1-3.4-4.6-6.4-10.9-8.9c0.3-1,0.4-1.2,0.6-2.1l-6.6-2C9.8,4,8.4,8.5,6.4,13.5
		s-4.1,9-6.3,12.1c0,0-0.1,0.2-0.1,0.3c0,0.3,0.2,0.5,0.5,0.5c0.2,0,0.4-0.2,0.4-0.2c1.5-1.3,2.9-2.5,4.3-3.5h6.4v10.6H1.5l0,0l0,0
		c-0.6,0-1.1,0.5-1.1,1.1s0.5,1.1,1.1,1.1l0,0l0,0h10.1v23.2C6.5,59.5,3,60,0.8,60.3l2.5,7.3C4.2,67.4,27.9,57.3,28.2,57
		c0.3-0.1,0.3-0.3,0.3-0.5c0-0.3-0.3-0.6-0.6-0.6h-0.1c-7,1.3-10.4,1.9-10.5,1.9V46.5l2.1,0.3c1.6,0.3,2.8,1.7,3.1,3.5l0.5,4.2
		c0,0.2,0.3,0.2,0.4,0l0.5-4.2c0.2-1.8,1.5-3.2,3.1-3.5l2.8-0.4v13.4c0,0.9-0.2,1.6-0.5,2s-1,0.9-2.1,1.6l2.7,6.6
		c2.2-1.3,11.5-7.9,15.7-11.3c0,0,0.2-0.2,0.2-0.4c0-0.3-0.2-0.5-0.5-0.5c-0.1,0-0.2,0-0.2,0c-2.2,0.7-5.3,1.7-9.4,3V34.4h4.9
		C42,43,44.2,50.1,47,55.8c2.8,5.5,6.5,9.9,11.1,13.1c0,0,0.2,0.1,0.3,0.1c0.2,0,0.3-0.1,0.4-0.3l0,0c0.8-3,2.4-4.8,4.6-5.4
		c0,0,0.4,0,0.4-0.4C63.8,62.7,63.7,62.6,63.5,62.5z M35.6,9.6h16v10.6h-16V9.6z M35.6,32.2v-9.8h16v9.8H35.6z M4.2,52.8
		c0.3-4.3-0.3-8.8-2-13.8c0,0,0-0.1,0-0.2c0-0.3,0.2-0.5,0.5-0.5c0.2,0,0.4,0.2,0.4,0.2c4.1,3.7,6.2,7.6,6.2,11.6
		c0,2.3-0.6,3.9-1.9,4.6C6.5,55.2,4.3,54.7,4.2,52.8z"/>
	<path d="M243.2,8.7c0,0.6-0.5,1.1-1.1,1.1l0,0h-27.9v55.9c0,0.2-0.2,0.5-0.7,0.8c-0.4,0.3-1.1,0.7-2,0.9c-0.9,0.3-1.8,0.4-2.8,0.4
		h-1.2V9.7h-24.7l0,0c-0.6,0-1.1-0.5-1.1-1.1s0.5-1.1,1.1-1.1H242C242.7,7.6,243.2,8.1,243.2,8.7z M177.8,60.8
		c-16-6.2-25.6-16.2-28.6-30H176c0.6,0,1.1-0.5,1.1-1.1s-0.5-1.1-1.1-1.1h-27.5c0.3-3.4,0.4-9.8,0.5-19h22.9c0.6,0,1.1-0.5,1.1-1.1
		s-0.5-1.1-1.1-1.1h-49.2l0,0c-0.6,0-1,0.5-1,1.1s0.5,1.1,1.1,1.1h19.3c-0.1,9.9,0,16.2-0.3,19h-22.9l0,0c-0.6,0-1.1,0.5-1.1,1.1
		s0.5,1.1,1.1,1.1l0,0l0,0h22.7c-0.9,8-3.2,14.9-7,20.6c-3.7,5.7-9.8,10.7-18.5,15.3l0,0c-0.2,0.1-0.3,0.3-0.3,0.6
		c0,0.4,0.3,0.7,0.7,0.7c0.1,0,0.2,0,0.3-0.1c5.5-2,10.1-4.3,13.9-6.8s6.9-5.3,9.2-8.4c2.4-3.1,4.2-6.3,5.4-9.5
		c1.3-3.3,2.2-7,2.8-11.1c0.6,3.5,1.3,6.8,2.3,9.8s2.4,6.1,4.1,9.4s4.1,6.3,7,9.2c2.9,2.8,6.2,5.2,10,7.3c0.3,0.2,0.4-0.1,0.4-0.2
		c0.6-3.3,2.5-5.2,5.7-5.7l0,0c0.2,0,0.3-0.2,0.3-0.4C178.1,61,177.9,60.9,177.8,60.8z M240.2,29.5l-5.4-0.9
		c-2.3-0.4-4.2-2.6-4.5-5.4l-0.8-6.5c0-0.4-0.5-0.4-0.5,0l-0.8,6.5c-0.3,2.8-2.2,5-4.5,5.4l-5.4,0.9c-0.3,0-0.3,0.6,0,0.6l5.4,0.9
		c2.3,0.4,4.2,2.6,4.5,5.4l0.8,6.5c0,0.4,0.5,0.4,0.5,0l0.8-6.5c0.3-2.8,2.2-5,4.5-5.4l5.4-0.9C240.5,30.1,240.5,29.6,240.2,29.5z"
		/>
</g>
</svg>
